<svg height="100" viewBox="0 0 563 100" width="563" xmlns="http://www.w3.org/2000/svg" xmlns:xlink="http://www.w3.org/1999/xlink"><linearGradient id="a" x1="4.698732%" x2="100%" y1="76.676178%" y2="37.754693%"><stop offset="0" stop-color="#1462fc"/><stop offset="1" stop-color="#08a5fa"/></linearGradient><g fill="none" fill-rule="evenodd"><path d="m123.159012 9.00845368-14.704765 54.86967242h9.069406l17.082183-63.86932018h-23.598067c-8.532286.48432546-14.9689223 3.95385699-20.9300756 9.88023952l-90.0776934 90.11095456h12.7676105l84.4511395-84.4575555c4.078264-4.1503539 9.643594-6.5021696 15.462017-6.53399082zm5.46806 81.95667492h-81.2988607l61.2228937-61.2539627 3.161084-11.650229c-3.1875 0-6.251726 1.9813315-8.426623 4.1563931l-77.7767608 77.78267h100.6880178l2.421444-9.0260655zm15.039364-90.9651286-19.538846 72.9041916h-45.9722033l-9.0253798 9.0260655h61.9097031l21.96029-81.89503343z" fill="url(#a)"/><path d="m420.869006 34.3880452c13.497246 0 22.39543 11.2375167 22.39543 24.5173126 0 12.9311141-8.538258 24.5173126-22.535401 24.5173126-6.406429.0099274-12.33514-3.3745091-15.566823-8.8864051l-.899817-1.5840116.319935 6.6847284v20.3630179h-10.197919v-64.1873405h9.698021v9.1255011l.809835-1.4246143c3.264086-5.7188493 9.394891-9.2124115 15.996735-9.1155388zm106.618242 1.3947272 10.997755 28.1535658 1.589676 5.7183818 1.659661-5.6586077 10.82779-28.1734905h10.43787l-18.996123 47.3310655c-.933143 2.331187-1.859621 4.3801077-2.779433 6.1467622-4.229137 8.1193051-8.008366 10.6796258-17.176495 10.6796258h-3.829218l2.189553-8.2587778h1.699653v-.0697363c4.229137 0 6.318711-1.5740494 8.138339-5.2800389.809835-1.6338234 1.839625-4.4631272 2.469496-6.1866116l-17.776372-44.4021383zm-194.230362-17.3543919v63.5696756h-9.638033v-9.1255011l-.809834 1.4246142c-3.261489 5.7226893-9.392794 9.2203549-15.996736 9.1255012h-.04999c-13.487247 0-22.385431-11.2375167-22.385431-24.5173126 0-12.9311141 8.538257-24.5173126 22.535401-24.5173126 6.406429-.0099274 12.335139 3.3745091 15.566823 8.886405l.899816 1.5840117-.319934-6.6847285v-19.7453529zm30.643747 15.9596647c13.447255 0 23.345235 10.4305674 23.345235 23.6904386l-.039992.0398493c0 1.1058195-.079983 2.2216013-.179963 3.3274208h-36.99245c1.109773 7.3422427 5.798816 12.9510387 13.587227 12.9510387 4.829014 0 8.948173-1.683635 10.947765-6.3061596h11.327689c-3.059376 9.50407-12.147521 15.3320374-21.995511 15.3320374-13.687207 0-24.055091-10.6796258-24.055091-24.5173126 0-13.5587413 10.057947-24.5173126 24.055091-24.5173126zm127.873903 0c13.957151 0 24.504999 10.5600777 24.504999 24.5173126 0 13.9572348-10.557846 24.5173126-24.554989 24.5173126-13.907162 0-24.365028-10.7095128-24.365028-24.5173126s10.457866-24.5173126 24.415018-24.5173126zm-225.573965 1.4345766v7.2426194l-.029994.0099623-.000577 2.1207965.142894-.3325347c1.223771-2.8704557 2.22248-5.1761205 4.989354-6.9728293l.327215-.2050571c2.326456-1.3064316 4.969666-1.9476428 7.638442-1.8529948h4.529075l-2.329524 8.6672337h-2.479494c-9.428076 0-12.337483 7.3322804-12.337483 15.5910582v21.9171425h-9.927973v-46.1853967zm-60.21771-17.444053 25.644766 63.6194873h-10.677821l-4.859008-12.1939011v-.0099623l-.109978-.2689831h-29.284023l-4.99898 12.4728465h-10.697817l25.654764-63.6194873zm254.348092.0099624v63.6095249h-9.937972v-63.6095249zm-213.056519 17.4241283v46.1853966h-9.89798v-46.1853966zm61.537441 7.9798323c-8.538257 0-14.347072 6.8242012-14.347072 15.112866s5.758825 15.1626777 14.347072 15.1626777c8.288309 0 14.35707-6.9138623 14.35707-15.1626777 0-8.029644-5.818812-15.112866-14.35707-15.112866zm110.077535-.0398494c-8.288308 0-14.35707 6.9138623-14.35707 15.1626777 0 8.0296441 5.818813 15.112866 14.35707 15.112866 8.538258 0 14.347072-6.8242012 14.347072-15.112866s-5.758824-15.1626777-14.347072-15.1626777zm72.925118.0398494c-8.568252 0-14.307081 6.7943142-14.307081 15.112866s5.708835 15.082979 14.307081 15.082979c8.598245 0 14.30708-6.8042765 14.30708-15.082979s-5.738829-15.112866-14.30708-15.112866zm-290.52071-12.9510388-.799837 3.2377597-10.277903 26.4699308h21.565599l.63987-.0099624-10.307897-26.4599684zm162.526831 12.3532985c-7.048562 0-11.557641 4.0148221-13.397266 10.5202285h26.394613c-.619873-6.6050298-6.708631-10.5202285-12.997347-10.5202285zm-121.545195-25.1947515c3.539278 0 6.168741 2.1319402 6.168741 5.8080428 0 3.6761025-2.569476 5.8379297-6.168741 5.8379297l-.059988-.029887c-1.596676.1062718-3.163276-.4696529-4.30809-1.5837707s-1.759617-2.6611064-1.690686-4.254159c0-3.5565545 2.519486-5.7781558 6.058764-5.7781558z" fill="#fff" fill-rule="nonzero"/></g></svg>