<svg height="100" viewBox="0 0 563 100" width="563" xmlns="http://www.w3.org/2000/svg"><linearGradient id="a" x1="4.699%" x2="100%" y1="76.676%" y2="37.755%"><stop offset="0" stop-color="#1462fc"/><stop offset="1" stop-color="#08a5fa"/></linearGradient><g fill="none" fill-rule="evenodd"><path d="M123.159 9.008l-14.705 54.87h9.07L134.606.008h-23.598c-8.533.485-14.97 3.955-20.93 9.881L0 100h12.768l84.45-84.458a21.845 21.845 0 0115.463-6.534zm5.468 81.957H47.328l61.223-61.254 3.161-11.65c-3.187 0-6.252 1.981-8.426 4.156L25.509 100h100.688l2.421-9.026zM143.667 0l-19.54 72.904H78.156L69.13 81.93h61.91L153 .035z" fill="url(#a)"/><path d="M420.869 34.388c13.497 0 22.395 11.238 22.395 24.517 0 12.931-8.538 24.518-22.535 24.518a18.009 18.009 0 01-15.567-8.887l-.9-1.584.32 6.685V100h-10.198V35.813h9.698v9.125l.81-1.424a18.109 18.109 0 0115.997-9.116zm106.618 1.395l10.998 28.153 1.59 5.719 1.66-5.659 10.827-28.173H563l-18.996 47.33c-.933 2.332-1.86 4.38-2.78 6.147-4.229 8.12-8.008 10.68-17.176 10.68h-3.83l2.19-8.259h1.7v-.07c4.23 0 6.319-1.573 8.138-5.28.81-1.633 1.84-4.463 2.47-6.186l-17.777-44.402zm-194.23-17.355v63.57h-9.638v-9.125l-.81 1.424a18.109 18.109 0 01-15.997 9.126h-.05c-13.487 0-22.385-11.238-22.385-24.518 0-12.93 8.538-24.517 22.535-24.517a18.009 18.009 0 0115.567 8.886l.9 1.584-.32-6.684V18.428zm30.644 15.96c13.447 0 23.345 10.43 23.345 23.69l-.04.04c0 1.106-.08 2.222-.18 3.328h-36.993c1.11 7.342 5.8 12.95 13.588 12.95 4.829 0 8.948-1.683 10.947-6.305h11.328c-3.06 9.504-12.147 15.332-21.995 15.332-13.688 0-24.055-10.68-24.055-24.518 0-13.558 10.057-24.517 24.055-24.517zm127.874 0c13.957 0 24.505 10.56 24.505 24.517 0 13.958-10.558 24.518-24.555 24.518-13.908 0-24.365-10.71-24.365-24.518s10.457-24.517 24.415-24.517zM266.2 35.823v7.242l-.03.01-.001 2.121.143-.333c1.224-2.87 2.222-5.176 4.99-6.972l.326-.205a14.549 14.549 0 017.639-1.853h4.529l-2.33 8.667h-2.479c-9.428 0-12.338 7.332-12.338 15.59v21.918h-9.927V35.823zm-60.218-17.444l25.645 63.62H220.95l-4.86-12.195v-.01l-.11-.269h-29.283l-5 12.473H171l25.655-63.62zm254.348.01v63.61h-9.938v-63.61zM247.274 35.813v46.185h-9.898V35.813zm61.538 7.98c-8.538 0-14.347 6.824-14.347 15.112s5.759 15.163 14.347 15.163c8.288 0 14.357-6.914 14.357-15.163 0-8.03-5.819-15.113-14.357-15.113zm110.077-.04c-8.288 0-14.357 6.914-14.357 15.162 0 8.03 5.82 15.113 14.357 15.113 8.539 0 14.347-6.824 14.347-15.113s-5.758-15.162-14.347-15.162zm72.926.04c-8.569 0-14.308 6.794-14.308 15.112s5.71 15.083 14.308 15.083c8.598 0 14.307-6.804 14.307-15.083s-5.74-15.113-14.307-15.113zM201.294 30.84l-.8 3.238-10.278 26.47h21.566l.64-.01-10.308-26.46zM363.82 43.195c-7.049 0-11.558 4.015-13.398 10.52h26.395c-.62-6.605-6.709-10.52-12.997-10.52zM242.275 18c3.54 0 6.17 2.132 6.17 5.808 0 3.676-2.57 5.838-6.17 5.838l-.06-.03c-1.596.106-3.163-.47-4.308-1.584s-1.76-2.66-1.69-4.254c0-3.556 2.52-5.778 6.058-5.778z" fill="#fff" fill-rule="nonzero"/></g></svg>